<?xml version="1.0" encoding="UTF-8" standalone="no"?>
<!DOCTYPE svg PUBLIC "-//W3C//DTD SVG 1.1//EN" "http://www.w3.org/Graphics/SVG/1.1/DTD/svg11.dtd">
<svg width="16" height="16" viewBox="0 0 16 16" version="1.1" xmlns="http://www.w3.org/2000/svg"
    xmlns:xlink="http://www.w3.org/1999/xlink" xml:space="preserve"
    xmlns:serif="http://www.serif.com/"
    style="fill-rule:evenodd;clip-rule:evenodd;stroke-linejoin:round;stroke-miterlimit:2;">
    <path d="M8,0C12.415,0 16,3.585 16,8C16,12.415 12.415,16 8,16C3.585,16 0,12.415 0,8C0,3.585 3.585,0 8,0ZM6.5,7L8,8.5L9.5,7L8,5.5L6.5,7ZM6.5,7L5,5.5L3.5,7L5,8.5L6.5,7ZM9.5,7L11,8.5L12.5,7L11,5.5L9.5,7ZM8,8.5L6.5,10L8,11.5L9.5,10L8,8.5Z" style="fill:rgb(190,190,190);"/>
</svg>